<svg id="Capa_1" enable-background="new 0 0 512 512" height="512" viewBox="0 0 512 512" width="512" xmlns="http://www.w3.org/2000/svg"><path d="m0 30.024v451.952h512v-451.952zm482 30v90.096h-452v-90.096zm-452 391.952v-271.856h452v271.856z"/><path d="m60.036 90.072h30.024v30h-30.024z"/><path d="m120.084 90.072h30.024v30h-30.024z"/><path d="m180.132 90.072h30.024v30h-30.024z"/><path d="m210.976 391.096h90.048v-150.096h-90.048zm30-120.096h30.048v90.096h-30.048z"/><path d="m150.928 301.048h-30.048v-60.06h-30v90.06h60.048v60.06h30v-150.12h-30z"/><path d="m391.12 301.048h-30.048v-60.06h-30v90.06h60.048v60.06h30v-150.12h-30z"/></svg>